<?xml version="1.0" encoding="utf-8"?>
<!DOCTYPE svg PUBLIC "-//W3C//DTD SVG 1.1//EN" "http://www.w3.org/Graphics/SVG/1.1/DTD/svg11.dtd">
<svg version="1.1" id="Layer_1" xmlns="http://www.w3.org/2000/svg" xmlns:xlink="http://www.w3.org/1999/xlink" x="0px" y="0px"
	 viewBox="0 0 300 473" enable-background="new 0 0 300 473" xml:space="preserve">
<path fill="#071933" d="M298.52,314.45c-3.26-3.98-7.91-6.74-12.33-9.28c-4.36-2.51-8.98-4.6-13.82-5.97c-2.48-0.7-5.02-1.22-7.58-1.53
	c-0.52-0.06-0.7-0.87-0.98-1.31c-0.3-0.48-0.63-0.94-0.99-1.39c-0.78-0.96-1.67-1.82-2.57-2.68c-1.83-1.75-3.54-3.62-5.43-5.3
	c-1.97-1.74-4.07-3.34-6.29-4.74c-4.38-2.77-9.28-5.08-14.44-5.85c-2.76-0.41-5.51-0.29-8.26,0.08c-2.81,0.38-5.64,0.78-8.34,1.67
	c-5.17,1.7-10.05,4.46-14.46,7.62c-4.55,3.26-8.93,6.85-13.23,10.44c-2.16,1.8-4.16,3.77-6.28,5.61c-0.94,0.82-1.92,0.65-3.07,0.49
	c-1.5-0.21-2.99-0.41-4.49-0.59c-5.82-0.72-11.72-1.34-17.59-1.38c-0.31,0-0.7,0.17-0.71-0.21c-0.01-0.35-0.01-0.71-0.02-1.06
	c-0.02-0.71-0.04-1.41-0.06-2.12c-0.05-1.53-0.11-3.06-0.14-4.59c-0.03-1.42-0.03-2.85,0.04-4.27c0.03-0.72,0.08-1.43,0.12-2.15
	c0.03-0.56-0.15-1.77,0.23-2.22c0.29-0.35,1.01-0.21,1.39-0.2c0.68,0.01,1.37,0.04,2.05,0.05c1.36,0.01,2.75-0.05,4.08-0.33
	c1.27-0.27,2.36-0.89,3.51-1.48c1.18-0.61,2.42-1.14,3.38-2.09c1.45-1.42,2.34-3.4,3.14-5.23c0.44-1,0.83-2.02,1.09-3.08
	c0.24-1.02,0.67-2.14,0.67-3.16c0-1.14,0-2.28,0-3.42c-0.35-1.08-0.63-2.18-1.09-3.22c-0.89-2.03-2.13-3.82-3.84-5.25
	c-3.34-2.79-8.08-3.42-12.2-2.36c-1.04,0.27-2.1,0.44-3.1,0.84c-1.02,0.4-1.86,1.06-2.74,1.71c-0.92,0.68-1.83,1.36-2.71,2.08
	c-0.85,0.69-1.32,1.49-1.95,2.36c-1.23-2.06-2.34-3.94-4.53-5.12c-2.26-1.22-4.94-1.46-7.46-1.2c-2.57,0.27-5.62,0.82-7.86,2.18
	c-2.04,1.23-3.87,2.87-5,4.98c-1.15,2.14-1.74,4.97-1.74,7.37c0,1.25,0.09,2.5,0.42,3.72c0.38,1.4,1.11,2.76,1.72,4.06
	c1.01,2.18,1.95,4.36,3.93,5.83c1.7,1.27,3.79,1.9,5.87,2.2c1.73,0.25,3.49,0.25,5.23,0.32c0.48,0.02,0.96,0.05,1.03,0.63
	c0.1,0.89-0.02,1.85-0.03,2.75c-0.05,3.68-0.08,7.37-0.16,11.05c-2.91-0.12-5.76,0.01-8.67,0.16c-2.96,0.15-5.94,0.09-8.91,0.07
	c-2.91-0.02-5.78-0.42-8.69-0.1c-2.92,0.32-5.88,0.13-8.81,0.43c-1.05,0.11-2.16,0.39-3.17-0.07c-1.1-0.5-1.83-1.71-2.59-2.6
	c-1.86-2.18-3.77-4.34-5.58-6.56c-1.84-2.26-3.65-4.55-5.41-6.87c-1.72-2.28-3.16-4.71-4.79-7.04c-3.21-4.58-6.22-9.23-8.59-14.31
	c-1.23-2.64-2.36-5.32-3.71-7.9c-1.34-2.55-2.62-5.12-3.83-7.73c-2.45-5.25-4.52-10.64-6.51-16.08c-2.03-5.57-4.06-11.13-5.95-16.75
	c-1.9-5.67-3.62-11.39-5.37-17.11c-1.71-5.6-3.47-11.19-4.89-16.88c-1.42-5.71-2.86-11.42-4.19-17.15
	c-1.34-5.78-2.33-11.62-3.46-17.44c-1.13-5.82-2.28-11.62-3.05-17.5c-0.76-5.84-0.94-11.71-1.47-17.56
	c-0.54-5.95-1.17-11.89-1.39-17.86c-0.22-5.96-0.79-11.92-1.24-17.87c-0.45-5.89-0.69-11.79-1.01-17.7
	c-0.16-2.99-0.28-5.98-0.17-8.97c0.12-2.96,0.41-5.91,0.62-8.87c0.81-11.72,1.3-23.5,3.99-34.97c0.4-1.71,0.82-3.42,1.25-5.13
	c-0.36,0-0.71,0-1.07,0c-0.1,0.3-0.18,0.49-0.36,0.75c-0.37,0.55-0.74,1.11-1.11,1.67c-0.79,1.21-1.57,2.43-2.32,3.67
	c-1.45,2.37-2.82,4.79-4.11,7.25c-2.65,5.05-4.91,10.27-6.85,15.62c-2.01,5.55-3.88,11.15-5.72,16.75
	c-1.83,5.56-3.68,11.13-4.88,16.87C7.7,67.7,6.64,73.52,5.57,79.33c-1.08,5.86-2.12,11.7-2.78,17.62c-0.66,5.86-1.62,11.7-1.83,17.6
	c-0.1,2.94-0.44,5.83-0.61,8.76c-0.17,2.96-0.05,5.92-0.11,8.88c-0.03,1.42-0.37,2.81-0.18,4.23c0.2,1.52,0.42,3.03,0.61,4.55
	c0.36,2.89,0.51,5.8,0.85,8.69c0.67,5.77,2.04,11.41,2.74,17.17c0.69,5.73,1.99,11.29,3.61,16.82c0.82,2.78,1.52,5.59,2.38,8.36
	c0.83,2.71,1.87,5.36,2.8,8.04c0.43,1.23,0.61,2.53,0.99,3.78c0.41,1.36,0.93,2.69,1.43,4.02c1.05,2.78,2.02,5.58,3,8.38
	c0.93,2.68,1.79,5.41,2.82,8.06c1,2.56,2.39,5,3.55,7.5c1.17,2.52,2.34,5.05,3.64,7.52c1.3,2.46,2.83,4.78,4.14,7.23
	c1.3,2.44,2.49,4.95,3.88,7.34c1.44,2.48,3.04,4.86,4.62,7.25c6.43,9.72,13.1,19.27,19.85,28.78c-10.62-2.6-21.33-5.48-31.49-9.55
	c-5.03-2.02-9.76-4.49-14.52-7.06c-2.47-1.34-4.99-2.6-7.49-3.87c-1.27-0.64-2.54-1.28-3.8-1.93c-0.97-0.49-1.85-1.09-2.93-1.2
	c1.73,2.03,3.65,3.86,5.46,5.82c1.93,2.09,3.8,4.24,5.66,6.4c3.66,4.25,7.81,7.92,11.83,11.81c4.07,3.94,7.67,8.31,11.91,12.08
	c4.42,3.94,8.95,7.77,13.32,11.76c2.1,1.91,4.09,3.91,6.29,5.71c2.24,1.82,4.62,3.48,6.97,5.16c1.14,0.82,2.29,1.64,3.43,2.45
	c1.13,0.8,2.48,1.53,3.45,2.51c1.05,1.07,1.28,2.99,1.64,4.4c1.57,6.06,2.75,12.21,4.32,18.27c0.57,2.19,1.4,4.34,2.1,6.48
	c0.93,2.82,1.84,5.65,2.86,8.44c1.92,5.26,4.43,10.23,7.12,15.12c1.34,2.42,2.62,4.88,4.19,7.17c1.46,2.14,2.58,4.46,4.09,6.55
	c0.29,0.4,0.09,0.4-0.2,0.73c-0.21,0.24-0.42,0.47-0.63,0.71c-0.43,0.49-0.87,0.97-1.29,1.46c-0.85,0.99-1.8,1.88-2.65,2.86
	c-1.68,1.93-2.1,4.96-2.14,7.43c-0.05,2.93,0.75,5.66,1.54,8.45c0.79,2.82,1.51,5.66,2.29,8.49c1.55,5.62,3.76,10.91,5.75,16.37
	c1.01,2.78,2,5.57,2.96,8.37c0.83,2.4,2.46,5.49,0.54,7.82c-0.71,0.87-2.18,1.09-3.19,1.36c-1.44,0.39-2.84,0.55-4.32,0.49
	c-1.35-0.06-2.71,0.04-4.05,0.22c-1.27,0.17-2.72,0.3-3.89,0.88c-1.1,0.55-1.94,1.66-2.74,2.56c-0.87,0.97-1.88,2.2-1.88,3.56
	c0.77-0.75,1.55-1.5,2.32-2.25c0.64,1.93,0.94,4.43,3.08,5.24c2.29,0.86,4.81,0.54,7.06-0.28c2.57-0.94,4.97-2.2,7.61-2.96
	c1.27-0.37,2.57-0.66,3.88-0.85c0.67-0.1,1.34-0.18,2.01-0.25c0.69-0.07,1.59-0.26,2.27-0.1c1.05,0.25,1.91,1.46,2.83,2.02
	c1.05,0.64,2.21,1.1,3.39,1.47c2.45,0.76,4.99,1.3,7.53,1.66c1.31,0.19,2.48,0.33,3.78-0.04c1.34-0.38,2.6-0.98,3.95-1.33
	c2.84-0.74,5.36-0.32,7.98,0.93c0.59,0.28,1.18,0.58,1.78,0.85c0.71,0,1.43,0,2.14,0c1.09-0.26,2.22-0.26,3.27-0.7
	c0.93-0.39,1.69-1.07,2.23-1.92c0.29-0.45,1.25-0.21,1.78-0.23c0.68-0.03,1.41-0.02,2.07-0.2c0.56-0.15,1.05-0.53,1.59-0.74
	c0.56-0.22,1.13-0.38,1.72-0.53c1.31-0.33,2.56-0.77,3.85-1.14c2.7-0.78,5.56-0.47,8.29,0.02c1.29,0.23,2.57,0.52,3.87,0.68
	c1.38,0.16,2.8-0.07,4.14,0.38c1.24,0.41,2.26,0.67,3.58,0.71c1.49,0.05,2.98,0.22,4.47,0.31c1.35,0.08,2.67-0.05,4.01-0.1
	c1.38-0.05,2.76,0,4.13-0.05c1.27-0.05,2.54-0.18,3.76-0.53c1.37-0.4,2.45-1.14,3.94-0.88c1.54,0.27,2.9,1.07,4.46,1.25
	c1.7,0.2,3.47,0.24,4.99-0.59c2.57-1.4,5.52-2.68,6.1-5.87c1.84,0.63,3.01,2.17,4.02,3.74c0.13-1.1,0.01-1.87-0.42-2.91
	c-0.4-0.98-0.95-1.89-1.64-2.7c-1.27-1.48-2.98-2.54-4.87-3.01c-2.31-0.58-4.56-0.08-6.86,0.32c-2.91,0.51-5.81,1.05-8.71,1.65
	c-2.73,0.57-5.3,1.54-7.99,2.3c-2.88,0.81-5.54,0.79-8.48,0.3c-1.25-0.21-2.63-0.34-3.81-0.84c-1.07-0.45-1.97-1.2-2.88-1.9
	c-0.42-0.32-0.85-0.64-1.3-0.91c-0.46-0.27-0.69-0.83-0.92-1.28c-0.68-1.27-1.39-2.52-2.12-3.76c-3.82-6.47-8.28-12.52-12.98-18.37
	c-2.5-3.11-5.05-6.16-7.64-9.2c-1.25-1.46-2.46-2.97-3.88-4.28c-1.34-1.24-2.67-2.49-3.99-3.75c0.35-0.2,0.69-0.39,1.04-0.59
	c-2.9-0.43-5.8-0.86-8.7-1.29c-1.4-0.21-2.8-0.42-4.2-0.62c-0.71-0.1-1.41-0.21-2.12-0.31c-0.4,0.56-0.71,1.18-0.92,1.84
	c-0.36,1.16-0.37,2.39-0.11,3.57c0.29,1.29,1.42,2.26,2.27,3.22c1.87,2.1,4.04,3.7,6.25,5.41c4.58,3.55,9.08,7.21,13.33,11.16
	c2.15,2,4.27,4.03,6.38,6.07c2.06,1.99,4.24,3.94,6.12,6.11c2.06,2.38,3.79,5.37,4.69,8.38c-2.82,0.38-5.22-0.61-7.94-1.1
	c-2.79-0.5-5.64-0.39-8.42,0.11c-2.83,0.51-5.57,1.27-8.44,1.65c-2.87,0.38-5.74,0.77-8.63,0.95c-2.93,0.17-5.94,0.29-8.87,0.07
	c-2.75-0.21-5.7-0.38-8.3-1.36c-2.22-0.84-4.35-1.81-5.16-4.18c-0.33-0.96-0.58-1.99-0.7-3c-0.16-1.36-0.84-2.64-1.24-3.94
	c-1.16-3.79-1.87-7.73-2.74-11.6c-0.95-4.23-1.89-8.47-2.83-12.71c-0.44-2-0.88-4-1.33-6c-0.1-0.44-0.18-0.73,0.22-0.96
	c0.5-0.29,1.01-0.57,1.52-0.84c0.94-0.5,1.88-0.99,2.81-1.49c1.88-0.99,3.75-1.98,5.61-3c1.68-0.92,3.22-2.02,4.81-3.07
	c-4.38-2.37-8.55-4.81-12.13-8.34c-1.61-1.58-3.01-3.24-3.96-5.3c-0.87-1.88-1.41-3.91-1.75-5.96c-0.59-3.57-0.78-7.52,0.29-11.01
	c0.71-2.31,1.91-4.46,3.43-6.33c1.66-2.05,3.76-3.63,5.84-5.21c1.95-1.48,4-3.21,6.34-4.05c1.78-0.64,3.76-0.75,5.62-0.59
	c2.31,0.19,4.32,1.42,6.43,2.29c2.63,1.09,5.35,1.74,8.08,2.5c5.66,1.59,11.31,3.16,17.05,4.46c5.72,1.29,11.69,1.58,17.53,2.1
	c2.12,0.19,4.26,0.44,6.39,0.53c2.02,0.08,4.04,0.09,6.06,0.2c4.24,0.23,8.3-1.12,12.3-2.34c3.76-1.15,7.45-2.23,10.96-4.04
	c3.39-1.75,6.49-4,9.68-6.07c-0.39,2.57-1.19,5.02-2,7.49c-0.88,2.69-1.83,5.36-2.86,7.99c-1.99,5.1-4.19,10.23-6.99,14.95
	c-2.52,4.27-5.63,8.18-9.22,11.61c-3.98,3.79-8.56,6.87-13,10.09c-0.63,0.46-1.4,0.87-1.69,1.63c2.69-0.44,5.34-1.07,8-1.67
	c2.7-0.6,5.4-1.25,8-2.24c2.55-0.97,5.01-2.22,7.45-3.42c2.43-1.2,4.84-2.46,7.16-3.86c9.29-5.62,16.85-14.08,22.65-23.19
	c5.99-9.39,11.58-19.09,14.67-29.87c1.58-5.53,2.24-11.17,3.1-16.84c0.21-1.38,0.42-2.76,0.61-4.15c0.07-0.53,0.09-1.12,0.38-1.6
	c0.32-0.54,0.94-0.82,1.43-1.16c2.05-1.44,3.81-3.26,5.31-5.26c1.07-1.44,2.31-1.71,3.99-2.13c1.82-0.45,3.64-0.9,5.46-1.32
	c3.78-0.85,7.57-1.45,11.43-1.78c3.72-0.31,7.44-0.66,11.16-0.98c3.84-0.34,7.67,0.41,11.5,0.57
	C300,316.77,299.15,315.22,298.52,314.45C297.44,313.13,299.2,315.28,298.52,314.45z M155.84,268.12c0.53-2.86,3.54-5.19,6.5-4.61
	c1.35,0.26,2.75,1.16,3.45,2.36c0.72,1.23,0.56,2.79,0.22,4.12c-0.69,2.73-3.07,4.58-5.9,4.55c-1.3-0.01-2.88-0.47-3.65-1.61
	C155.65,271.73,155.59,269.48,155.84,268.12C156.15,266.47,155.69,268.97,155.84,268.12z M138.23,275.07
	c-1.44-0.26-3.31-0.22-4.54-1.11c-0.98-0.71-1.48-1.97-1.38-3.16c0.21-2.57,1.96-5.22,4.7-5.33c2.48-0.09,4.66,1.83,5.04,4.25
	C142.45,272.25,141.02,274.92,138.23,275.07C137,274.85,139.53,275,138.23,275.07z M200.41,357.37c-2.61,0.99-5.37,1.53-8.15,1.75
	c-1.41,0.11-2.82,0.11-4.23,0.12c-1.51,0.01-3.02,0.13-4.53,0.12c-5.55-0.04-11.1-1.61-16.27-3.52c-2.61-0.96-5.09-2.22-7.59-3.44
	c-2.46-1.21-5.02-2.22-7.4-3.58c-2.37-1.35-4.57-2.95-6.77-4.54c-2.34-1.69-4.72-3.32-7.03-5.05c-5.48-4.1-10.61-8.75-14.76-14.22
	c-2.12-2.8-4.04-5.74-5.92-8.7c-1.86-2.92-3.92-5.77-5.49-8.85c5.03,2.8,10.06,5.59,15.13,8.32c5.07,2.73,10.05,5.74,15.46,7.76
	c5.32,1.98,10.86,3.38,16.3,4.98c5.61,1.66,11.14,3.59,16.75,5.25c4.16,1.23,8.34,2.39,12.5,3.65c4.06,1.23,7.51,3.33,11.13,5.48
	c1.5,0.89,2.85,1.65,3.79,3.18c0.77,1.26,1.26,2.83,1.35,4.31C204.84,353.18,203.08,356.36,200.41,357.37
	C197.56,358.45,203.43,356.23,200.41,357.37z"/>
</svg>
