<?xml version="1.0" encoding="utf-8"?>
<!DOCTYPE svg PUBLIC "-//W3C//DTD SVG 1.1//EN" "http://www.w3.org/Graphics/SVG/1.1/DTD/svg11.dtd">
<svg version="1.1" id="Layer_1" xmlns="http://www.w3.org/2000/svg" xmlns:xlink="http://www.w3.org/1999/xlink" x="0px" y="0px"
	 viewBox="0 0 603 394" enable-background="new 0 0 603 394" xml:space="preserve">
<g id="EdRoNi_1_">
	<g>
		<path fill="#403e54" d="M603,83.03c-10.96,12.11-25.78,10.55-40.33,13.68c7.02,1.64,36.07,4.31,39.3,10.15c-11.07,7.52-22.43,5.85-35.01,8.46
			c7.08,3.4,14.17,6.81,21.25,10.21c-9.1,11.76-23.2,9.74-36.34,10.24c4.62,2.68,9.24,5.37,13.86,8.05
			c-9.43,9.84-22.53,8.29-34.91,8.09c2.78,2.32,5.56,4.64,8.33,6.95c-4.62,5.35-11.83,4.96-18.39,5.27c-6.31,0.3-4.53,3.84-10.3,4
			c-7.67,0.21-15.56,0.23-23.2-0.52c5.25,8.91-22.49,0.92-27.06-0.01c1.26,2.92,2.53,5.83,3.79,8.75
			c-11.23-0.31-22.78-2.51-31.14-10.61c-4.82-4.68-8.4,1.8-15.05,2.57c-7.41,0.86-13.77-3.55-20.99-2.98
			c-5.96,0.47-10.11,2.5-15.91-0.5c-7.51-3.88-8.79-1.12-16.95-1.74c-5.9-0.45-9.08-5.78-14.32-6.57
			c-6.94-1.05-11.71,4.73-17.6-2.41c-2.89,6.48-3.75,13.37-6.54,19.89c-2.48,5.81-7.75,10.3-8.1,16.89
			c-0.94,17.65-1.85,35.2-2,52.88c-0.3,36.76,2.77,73.06,6.13,109.64c-5.36-2.59-6.68-8.14-9.49-12.83c0,17.81,0,35.61,0,53.42
			c-4.16,0-11.27-14.48-13.71-18.09c-3.78,4.53-6.46,9.98-12.45,12c0.88-5.73,10.16-47.6,6.71-49.4
			c-3.23,4.21-6.23,9.01-11.78,10.29c2.53-33.9,4.84-67.8,6.11-101.78c0.66-17.78,1.14-35.57,1.64-53.35
			c0.22-7.88-1.05-10.74-5.75-16.32c-4.5-5.34-3.94-12.08-7.62-17.58c-5.11-7.64-7.87-0.58-15.41-2.07c-7.64-1.51-8.54,1.24-15.42,4
			c-5.91,2.37-11.76-1.83-16.64-0.22c-6.15,2.03-9.28,6-16.47,4.99c-14.32-2.02-24.6,4.08-38.71-3.25
			c-8.25,10.12-21.19,12.8-33.61,13.18c1.18-2.68,2.36-5.36,3.55-8.04c-4.48,0.7-30.88,6.63-27.21,0.03
			c-5.94,0-23.43,3.29-27.58-2.29c-3.7-4.97-18.11-2.06-24.36-6.76c2.94-2.47,5.89-4.94,8.83-7.41
			c-12.42,0.22-25.38,1.64-34.93-8.07c4.62-2.68,9.23-5.36,13.85-8.03c-13.11-0.59-27.26,1.54-36.29-10.3
			c7.24-3.46,14.48-6.92,21.72-10.38c-12.71-1.35-26.04,0.57-36.14-9.06c4.11-0.96,39.88-7.58,39.87-9.91
			C32.87,95.53,0,94.38,0,82.27c16.7-2.53,33.4-5.07,50.11-7.6c-3.83-2.41-7.66-4.83-11.49-7.24c1.92-5.97,51.63-6.53,59.65-7.31
			c-1.42-1.21-2.85-2.42-4.27-3.63c2.38-6.39,59.77,2.61,69.04,2.31c24.81-0.81,49.01,6.48,73.66,5.37
			c12.02-0.54,47.81,0.3,48.85-16.6c0.55-8.86,1.08-16.66,6.73-24c3.24-4.22,6.35-6.26,8.5-11.24C302,9.44,304.32,0,307.53,0
			c2.52,9.79,5.59,16.38,10.18,25.12c5.52,10.52,0.78,17.77,2.07,28.16c1.55,12.48,49.52,11.02,58.32,10.5
			c22.03-1.3,43.18-6.08,65.4-4.82c11.7,0.67,22.86-2.67,34.51-3.23c7.72-0.38,24.56-3.16,31.21,0.73c-1.5,1.21-3,2.43-4.5,3.64
			c19.77,1.93,39.55,3.86,59.32,5.79c0.67,3.38-8.32,7.02-11.15,8.78C558.09,75.46,603,80.62,603,83.03
			C595.63,91.18,603,82.78,603,83.03z"/>
	</g>
</g>
</svg>